inDegrees=no
num_controls=7
num_derivatives=13
num_iterations=109
num_multipliers=7
num_parameters=0
num_slacks=7
num_states=26
objective=0.453005
objective_accelerations=0.048277
objective_balance=0.001032
objective_effort=0.037494
objective_height=0.360559
objective_ligament=0.005643
solver_duration=1236.753453
status=Solve_Succeeded
success=true
DataType=double
version=3
OpenSimVersion=4.5
endheader
time	/jointset/ground_pelvis/pelvis_tilt/value	/jointset/ground_pelvis/pelvis_tx/value	/jointset/ground_pelvis/pelvis_ty/value	/jointset/hip_r/hip_flexion_r/value	/jointset/hip_r/hip_adduction_r/value	/jointset/hip_r/hip_rotation_r/value	/jointset/back/lumbar_extension/value	/jointset/patellofemoral_r/patellar_flexion_r/value	/jointset/knee_r/knee_flexion_r/value	/jointset/knee_r/knee_adduction_r/value	/jointset/knee_r/knee_rotation_r/value	/jointset/ankle_r/ankle_angle_r/value	/jointset/subtalar_r/subtalar_angle_r/value	/jointset/ground_pelvis/pelvis_tilt/speed	/jointset/ground_pelvis/pelvis_tx/speed	/jointset/ground_pelvis/pelvis_ty/speed	/jointset/hip_r/hip_flexion_r/speed	/jointset/hip_r/hip_adduction_r/speed	/jointset/hip_r/hip_rotation_r/speed	/jointset/back/lumbar_extension/speed	/jointset/patellofemoral_r/patellar_flexion_r/speed	/jointset/knee_r/knee_flexion_r/speed	/jointset/knee_r/knee_adduction_r/speed	/jointset/knee_r/knee_rotation_r/speed	/jointset/ankle_r/ankle_angle_r/speed	/jointset/subtalar_r/subtalar_angle_r/speed	/forceset/tau_hip_flexion_r	/forceset/tau_hip_adduction_r	/forceset/tau_hip_rotation_r	/forceset/tau_knee_flexion_r	/forceset/tau_ankle_angle_r	/forceset/tau_subtalar_angle_r	/forceset/tau_lumbar_extension	lambda_cid13_p0	lambda_cid14_p0	lambda_cid14_p1	lambda_cid14_p2	lambda_cid14_p3	lambda_cid14_p4	lambda_cid14_p5	/jointset/ground_pelvis/pelvis_tilt/accel	/jointset/ground_pelvis/pelvis_tx/accel	/jointset/ground_pelvis/pelvis_ty/accel	/jointset/hip_r/hip_flexion_r/accel	/jointset/hip_r/hip_adduction_r/accel	/jointset/hip_r/hip_rotation_r/accel	/jointset/back/lumbar_extension/accel	/jointset/patellofemoral_r/patellar_flexion_r/accel	/jointset/knee_r/knee_flexion_r/accel	/jointset/knee_r/knee_adduction_r/accel	/jointset/knee_r/knee_rotation_r/accel	/jointset/ankle_r/ankle_angle_r/accel	/jointset/subtalar_r/subtalar_angle_r/accel	gamma_cid13_p0	gamma_cid14_p0	gamma_cid14_p1	gamma_cid14_p2	gamma_cid14_p3	gamma_cid14_p4	gamma_cid14_p5
1	-0.2178833157086273	-0.01447279101449395	0.6328380170303007	1.422105393294668	-0.2386056327626372	-0.08468895660813222	-0.7853952813418981	1.520855875626574	1.520855875626561	-0.1745308320899281	0.1738735534712547	0.4362465755204795	0.1751554644872343	0.06735950034258642	0.00459566157861264	0.01380830722261164	-0.09459795723720829	-0.0008803306160406791	-0.001519701707647474	-3.977091719267738e-05	-0.01400873927998724	-0.01400873927998713	0.003238492153363766	-0.0008657306729505143	0.01329714881724499	0.005209558756224948	-0.3214869937525687	0.02489901909974402	0.01078961232986093	-0.4756714255634719	-0.004529871201072296	0.006232085918945945	0.3509726102973046	-0.04089377467946252	-52.98249222693367	-10.30661928947204	6.332916486558808	6.097316271714267	-768.036711604659	71.89722793958752	1.147539194050863	0.1523901853771761	1.808478070244439	-5.322268514311663	0.2500394137996704	-0.613940554682632	-0.01683059356584348	-5.001894304554455	-5.001894304554501	0.6606067829600596	-0.01354924396977381	-0.9774017895056487	-0.01517203486490818	1.160941742569922e-09	-1.513148313975551e-09	1.069136597657578e-08	6.124065197221927e-09	5.528513902458422e-09	-6.881292282608487e-09	1.670653416512447e-08
1.01	-0.2171535872231486	-0.01441913161817252	0.6330665385207351	1.42089424797658	-0.2386019707792322	-0.0847321845945629	-0.7853945220942612	1.520465507498886	1.520465507498879	-0.1744625422550957	0.1738639485588286	0.4363304949619224	0.1752065706129716	0.07852123700372403	0.00614731769989608	0.03190917364093329	-0.1476178254269123	0.001612198218640725	-0.007108316911868461	0.0003230798266023359	-0.06412633252616283	-0.06412633252616125	0.01045923765065115	-0.001051056484419487	0.003471308206085633	0.005001933265230612	-0.3217340087257662	0.02500530972324213	0.01093049396378193	-0.4765423231863168	-0.004054266161451811	0.006108473955217184	0.3516010756314211	-0.04090502653030956	-52.89972432787543	-10.37398619406809	6.37583861133372	5.884845373139897	-768.9841871541881	71.92689179136866	1.090749224379277	0.1582200522999896	1.81286477212012	-5.289851987099773	0.2487857099590224	-0.5286820926217376	0.08256181337791091	-5.025910173626442	-5.025910173626102	0.75877208602186	-0.02038352535584191	-0.9874906641451189	-0.02500727880219656	6.935869226010257e-09	2.946635076438982e-09	3.48377356585611e-08	4.135856144025239e-08	8.590912954972184e-09	-1.775024665270239e-08	7.985525194313975e-08
1.02	-0.2163141897066133	-0.01434962231527849	0.6334764634442522	1.419153302773456	-0.2385733982891415	-0.0848307707509223	-0.7853861905581582	1.51957211977094	1.519572119770943	-0.1743208522346674	0.1738526185331481	0.4363156929042227	0.1752553105892824	0.08929330655422704	0.007765642893130582	0.05008899383908366	-0.2005579342485969	0.004101770719596927	-0.0125913356892932	0.001474686771414917	-0.1146126593314309	-0.1146126593314277	0.01791852926428771	-0.001210753320707205	-0.00644715109403205	0.004736328870820677	-0.3219810236988565	0.02511160034671853	0.01107137559792818	-0.4774132208091367	-0.00357866112185719	0.005984861991430433	0.3522295409656319	-0.04092385900737305	-52.8244607271733	-10.43890545459936	6.414073503992642	5.675027419037662	-770.0519122608011	71.98866839685533	1.069605771923829	0.1657239997674938	1.824268826210184	-5.306316640707796	0.249448147054614	-0.5928212693235048	0.1409206466369836	-5.07564101637291	-5.075641016372917	0.7083160062297599	-0.008423448933530635	-0.9959255272970999	-0.02676781554794349	1.287031634830405e-08	1.381366652014882e-08	6.815145264793323e-08	8.703797740508988e-08	-2.786847486526319e-11	-2.322290395963642e-08	1.580732798455519e-07
1.03	-0.2153686346241619	-0.01426359249605059	0.6340684409851816	1.416883350531852	-0.2385199507536148	-0.08498370728390091	-0.7853619958563486	1.518172436985275	1.518172436985282	-0.1741035562504411	0.1738397878526715	0.4362012966880732	0.1753011201060485	0.0997895398467199	0.009451887475756354	0.06830563465252634	-0.2534183856192673	0.006587120018288482	-0.01798380101766499	0.003538133387894786	-0.1653448902161909	-0.1653448902161902	0.0255613543163886	-0.001355530396538373	-0.01644237744759911	0.00441827694722481	-0.3229687273693415	0.02528923247211347	0.01115431968938399	-0.4767954032139855	-0.004742939529920737	0.006048880811372869	0.3534112597799848	-0.04094398277685549	-53.23982019978646	-10.45808389270693	6.387724711634498	5.860054376299605	-770.7824743321688	71.97474247468405	1.035412271260701	0.1718078602349938	1.820223993863408	-5.273784866714094	0.2480029628876686	-0.5106229559943425	0.2651386374206119	-5.075166783852465	-5.075166783852652	0.7953653348524249	-0.0174911114973993	-1.002863693943229	-0.03538673630968363	1.880639122201473e-08	2.474607804603519e-08	1.015587139975849e-07	1.328239741834153e-07	-8.765845623910442e-09	-2.86404970108239e-08	2.364450762186212e-07
1.04	-0.2143189611761306	-0.01416035359645078	0.634842557391236	1.41408521868026	-0.238441664796773	-0.08519020122845501	-0.7853119502946733	1.516264801358897	1.516264801358909	-0.173809212099654	0.1738255121465158	0.4359866397074459	0.1753435365324707	0.1101169796731777	0.01120745896751569	0.08651676686407964	-0.3061938562486068	0.009069454981432374	-0.02330281800205229	0.006644858735057464	-0.2162032274739552	-0.216203227473957	0.03332816257457408	-0.001499758455953757	-0.02649930398343784	0.004057710801861945	-0.3239564310397267	0.02546686459751404	0.01123726378092437	-0.4761775856188286	-0.005907217938004548	0.00611289963131481	0.3545929785944232	-0.04097191699427819	-53.66287140146976	-10.474595239297	6.356365539330136	6.046887792085905	-771.6374915378129	71.99414320657854	1.03584707871666	0.1795893815943344	1.823167105832318	-5.289320492441664	0.2488452799450522	-0.5781316005266723	0.3495763927733194	-5.100862290973737	-5.100862290973737	0.7331126474466234	-0.008313645650357948	-1.008265563751189	-0.03527065990127731	2.359195814777097e-08	3.319074255984555e-08	1.317100486435201e-07	1.706076858124232e-07	-1.469905098398814e-08	-3.37232732291785e-08	3.022998768534627e-07
1.05	-0.2131669956282722	-0.01403914607089124	0.6357986188163938	1.410760127451584	-0.2383386727266361	-0.08544931321016594	-0.7852252293146583	1.513848259621627	1.513848259621635	-0.1734363233192423	0.1738099491488766	0.4356711476216399	0.1753819573235078	0.1202318338622502	0.01305231744413605	0.1046805746393234	-0.3587711202290688	0.01151897125911919	-0.02848390664406387	0.01091543661974468	-0.2670953105395787	-0.2670953105395821	0.04129789007025964	-0.001600152438947725	-0.03660498756510057	0.003603070144704148	-0.3247328591436038	0.0255880809353687	0.01137362097521491	-0.4752147204066356	-0.006872866104634487	0.006162002791801575	0.3556619348840098	-0.04100164093510207	-53.9900831574313	-10.47994042716737	6.322240531105814	6.088304647484063	-772.0663614438155	71.96402835959952	0.992668821536064	0.1896706080564882	1.810738273828898	-5.233930791631074	0.2415334444983567	-0.4827303859293023	0.4982133886276556	-5.081915614475879	-5.081915614475963	0.8361425618782771	-0.008942832626148782	-1.012600165551529	-0.05401726351539088	2.834157170015365e-08	4.155766497952855e-08	1.617596355799642e-07	2.081413260305151e-07	-2.054460722566062e-08	-3.879558642150707e-08	3.677635213714846e-07
1.06	-0.2119152086920266	-0.01389894265509281	0.636935868451396	1.406910863294962	-0.2382114797651526	-0.08575916265628308	-0.7850893195753247	1.510923090193676	1.510923090193675	-0.1729822893116154	0.1737937740998081	0.4352544226179743	0.1754151404089956	0.1300812573526746	0.01500663701529253	0.1227544088329484	-0.4110284418408117	0.013909633249519	-0.03345031088171203	0.0164826105968819	-0.3179287656099765	-0.3179287656099813	0.0495572080158922	-0.001622168742035005	-0.04674588755387284	0.003010169691856157	-0.3255092872473785	0.0257092972732375	0.01150997816955168	-0.4742518551944376	-0.007838514271280394	0.006211105952306861	0.3567308911736864	-0.04103924178945469	-54.32508694334391	-10.4824171146734	6.282822919850738	6.130631472113019	-772.6226575836732	71.96817498292096	0.9827609389868788	0.2014816005016918	1.805172389508567	-5.225332018697898	0.237074422487622	-0.5351947196540446	0.6088956112632021	-5.089136691928545	-5.089136691928537	0.7910307374359964	0.007361890331006289	-1.015308845172855	-0.06292261903926011	3.382619898827988e-08	4.955359709268151e-08	1.88963116008772e-07	2.492775825637708e-07	-2.459773291346707e-08	-4.500253023422389e-08	4.335145986779494e-07
1.07	-0.2105658019979258	-0.01373862465304103	0.6382533812013893	1.402540268705825	-0.2380606718463643	-0.08611770054102824	-0.7848919063101046	1.507489980029441	1.507489980029443	-0.1724443557803885	0.1737777276123879	0.4347361272967726	0.1754417182778821	0.1397994807901493	0.01707770079091177	0.1407305752362166	-0.4630717785862126	0.01624360071381337	-0.0382256132189263	0.02315330710704074	-0.3686733428474993	-0.3686733428475022	0.0580676040150146	-0.001582280449829292	-0.05691716239808976	0.002286250978451354	-0.325846525099187	0.02578878840091514	0.01170102253744231	-0.4730262406984189	-0.008604808317055688	0.006247476072827839	0.3573939640609876	-0.04108062770432107	-54.56324741783716	-10.47211954900242	6.239829783609292	6.125640608269003	-772.6785562681707	71.94202168557068	0.9662747569479444	0.2130236087901341	1.791193533758281	-5.191018680044702	0.2303429658372391	-0.4439262044045252	0.7191463695451202	-5.064137529278699	-5.064137529278351	0.8867526151944127	0.003107235312345869	-1.018633364310313	-0.07993105695158177	3.934992275171162e-08	5.752979567889139e-08	2.160152077935567e-07	2.906054676244289e-07	-2.855551655053595e-08	-5.126982673951457e-08	4.992809649625227e-07
